<svg width="24" height="24" viewBox="0 0 24 24" fill="none" xmlns="http://www.w3.org/2000/svg">
<path fill-rule="evenodd" clip-rule="evenodd" d="M21.4286 12C21.4286 14.5006 20.4352 16.8988 18.667 18.667C16.8988 20.4352 14.5006 21.4286 12 21.4286C9.49939 21.4286 7.10119 20.4352 5.33299 18.667C3.56479 16.8988 2.57143 14.5006 2.57143 12C2.57143 9.49939 3.56479 7.10119 5.33299 5.33299C7.10119 3.56479 9.49939 2.57143 12 2.57143C14.5006 2.57143 16.8988 3.56479 18.667 5.33299C20.4352 7.10119 21.4286 9.49939 21.4286 12ZM24 12C24 15.1826 22.7357 18.2348 20.4853 20.4853C18.2348 22.7357 15.1826 24 12 24C8.8174 24 5.76516 22.7357 3.51472 20.4853C1.26428 18.2348 0 15.1826 0 12C0 8.8174 1.26428 5.76516 3.51472 3.51472C5.76516 1.26428 8.8174 0 12 0C15.1826 0 18.2348 1.26428 20.4853 3.51472C22.7357 5.76516 24 8.8174 24 12ZM13.2857 6C13.2857 5.65901 13.1503 5.33198 12.9091 5.09086C12.668 4.84974 12.341 4.71429 12 4.71429C11.659 4.71429 11.332 4.84974 11.0909 5.09086C10.8497 5.33198 10.7143 5.65901 10.7143 6V12C10.7143 12.1996 10.7608 12.3965 10.85 12.575C10.9393 12.7535 11.0689 12.9088 11.2286 13.0286L14.6571 15.6C14.7922 15.7013 14.9459 15.775 15.1095 15.8169C15.273 15.8588 15.4433 15.8681 15.6104 15.8442C15.7775 15.8203 15.9384 15.7638 16.0836 15.6778C16.2289 15.5917 16.3558 15.4779 16.4571 15.3429C16.5585 15.2078 16.6322 15.0541 16.6741 14.8905C16.716 14.727 16.7252 14.5567 16.7014 14.3896C16.6775 14.2225 16.6209 14.0617 16.5349 13.9164C16.4489 13.7711 16.3351 13.6442 16.2 13.5429L13.2857 11.3571V6Z" fill="white"/>
</svg>
