<svg width="24" height="24" viewBox="0 0 24 24" fill="none" xmlns="http://www.w3.org/2000/svg">
<path d="M15.6667 14.3333C17.2138 14.3333 18.6975 14.9478 19.7915 16.0418C20.8854 17.1358 21.5 18.6195 21.5 20.1666V21.3333C21.5 21.9521 21.2542 22.5456 20.8166 22.9832C20.379 23.4208 19.7855 23.6666 19.1667 23.6666H2.83333C2.21449 23.6666 1.621 23.4208 1.18342 22.9832C0.745833 22.5456 0.5 21.9521 0.5 21.3333V20.1666C0.5 18.6195 1.11458 17.1358 2.20854 16.0418C3.30251 14.9478 4.78624 14.3333 6.33333 14.3333H15.6667ZM20.3333 7.33325C20.6428 7.33325 20.9395 7.45617 21.1583 7.67496C21.3771 7.89375 21.5 8.1905 21.5 8.49992V9.66659H22.6667C22.9761 9.66659 23.2728 9.7895 23.4916 10.0083C23.7104 10.2271 23.8333 10.5238 23.8333 10.8333C23.8333 11.1427 23.7104 11.4394 23.4916 11.6582C23.2728 11.877 22.9761 11.9999 22.6667 11.9999H21.5V13.1666C21.5 13.476 21.3771 13.7728 21.1583 13.9915C20.9395 14.2103 20.6428 14.3333 20.3333 14.3333C20.0239 14.3333 19.7272 14.2103 19.5084 13.9915C19.2896 13.7728 19.1667 13.476 19.1667 13.1666V11.9999H18C17.6906 11.9999 17.3938 11.877 17.175 11.6582C16.9562 11.4394 16.8333 11.1427 16.8333 10.8333C16.8333 10.5238 16.9562 10.2271 17.175 10.0083C17.3938 9.7895 17.6906 9.66659 18 9.66659H19.1667V8.49992C19.1667 8.1905 19.2896 7.89375 19.5084 7.67496C19.7272 7.45617 20.0239 7.33325 20.3333 7.33325ZM11 0.333252C12.5471 0.333252 14.0308 0.947834 15.1248 2.0418C16.2188 3.13576 16.8333 4.61949 16.8333 6.16659C16.8333 7.71368 16.2188 9.19741 15.1248 10.2914C14.0308 11.3853 12.5471 11.9999 11 11.9999C9.4529 11.9999 7.96917 11.3853 6.87521 10.2914C5.78125 9.19741 5.16667 7.71368 5.16667 6.16659C5.16667 4.61949 5.78125 3.13576 6.87521 2.0418C7.96917 0.947834 9.4529 0.333252 11 0.333252Z" fill="#07484A"/>
</svg>
