<svg width="28" height="28" viewBox="0 0 28 28" fill="none" xmlns="http://www.w3.org/2000/svg">
<path d="M18.6667 16.3333C20.2138 16.3333 21.6975 16.9478 22.7915 18.0418C23.8854 19.1358 24.5 20.6195 24.5 22.1666V23.3333C24.5 23.9521 24.2542 24.5456 23.8166 24.9832C23.379 25.4208 22.7855 25.6666 22.1667 25.6666H5.83333C5.21449 25.6666 4.621 25.4208 4.18342 24.9832C3.74583 24.5456 3.5 23.9521 3.5 23.3333V22.1666C3.5 20.6195 4.11458 19.1358 5.20854 18.0418C6.30251 16.9478 7.78624 16.3333 9.33333 16.3333H18.6667ZM14 2.33325C15.5471 2.33325 17.0308 2.94783 18.1248 4.0418C19.2188 5.13576 19.8333 6.61949 19.8333 8.16659C19.8333 9.71368 19.2188 11.1974 18.1248 12.2914C17.0308 13.3853 15.5471 13.9999 14 13.9999C12.4529 13.9999 10.9692 13.3853 9.87521 12.2914C8.78125 11.1974 8.16667 9.71368 8.16667 8.16659C8.16667 6.61949 8.78125 5.13576 9.87521 4.0418C10.9692 2.94783 12.4529 2.33325 14 2.33325ZM25.6667 11.6666C25.964 11.6669 26.25 11.7808 26.4663 11.9849C26.6825 12.189 26.8126 12.468 26.83 12.7649C26.8475 13.0617 26.7509 13.354 26.56 13.5821C26.3692 13.8101 26.0984 13.9566 25.8032 13.9918L25.6667 13.9999H21C20.7026 13.9996 20.4166 13.8857 20.2004 13.6816C19.9842 13.4775 19.8541 13.1985 19.8366 12.9016C19.8192 12.6048 19.9158 12.3125 20.1066 12.0844C20.2975 11.8564 20.5682 11.7099 20.8635 11.6748L21 11.6666H25.6667Z" fill="#07484A"/>
</svg>
